# xmcd
#
# Track frame offsets: 
#        193
#        23105
#        42797
#        64057
#        85359
#        108358
#        128988
#        150735
#        168208
#        195207
#        226789
#
# Disc length: 3357 seconds
#
# Revision: 1
# Processed by: cddbd v1.5.2PL0 Copyright (c) Steve Scherf et al.
# Submitted via: ExactAudioCopyFreeDBPlugin 1.0
#
DISCID=7d0d1b0b
DTITLE=Kashif - Condition Of The Heart
DYEAR=1985
DGENRE=Soul
TTITLE0=I Wanna Have Love With You
TTITLE1=Dancing In The Dark (Heart To Heart)
TTITLE2=Condition Of The Heart
TTITLE3=Say You Love Me
TTITLE4=Movie Song
TTITLE5=Stay The Night
TTITLE6=Weakness
TTITLE7=Botha Botha (Apartheid Song)
TTITLE8=Condition Of The Heart (Extended Version)
TTITLE9=Love On The Rise (Extended Remix)
TTITLE10=Love On The Rise (Instrumental)
EXTD=
EXTT0=
EXTT1=
EXTT2=
EXTT3=
EXTT4=
EXTT5=
EXTT6=
EXTT7=
EXTT8=
EXTT9=
EXTT10=
PLAYORDER=
